<?xml version="1.0" encoding="UTF-8" standalone="no"?>
<!DOCTYPE svg PUBLIC "-//W3C//DTD SVG 1.1//EN"
 "http://www.w3.org/Graphics/SVG/1.1/DTD/svg11.dtd">
<!-- Generated by graphviz version 2.42.4 (0)
 -->
<!-- Title: DFD0 Pages: 1 -->
<svg width="816pt" height="208pt"
 viewBox="0.00 0.00 815.72 207.74" xmlns="http://www.w3.org/2000/svg" xmlns:xlink="http://www.w3.org/1999/xlink">
<g id="graph0" class="graph" transform="scale(1 1) rotate(0) translate(4 203.74)">
<title>DFD0</title>
<polygon fill="white" stroke="transparent" points="-4,4 -4,-203.74 811.72,-203.74 811.72,4 -4,4"/>
<!-- Farmer -->
<g id="node1" class="node">
<title>Farmer</title>
<ellipse fill="none" stroke="black" cx="175.36" cy="-172.87" rx="121.74" ry="26.74"/>
<text text-anchor="middle" x="175.36" y="-176.67" font-family="Times,serif" font-size="14.00">Farmer</text>
<text text-anchor="middle" x="175.36" y="-161.67" font-family="Times,serif" font-size="14.00">(crop, region, factors)</text>
</g>
<!-- System -->
<g id="node4" class="node">
<title>System</title>
<path fill="#e3f2fd" stroke="black" d="M795.72,-135.87C795.72,-135.87 628.72,-135.87 628.72,-135.87 622.72,-135.87 616.72,-129.87 616.72,-123.87 616.72,-123.87 616.72,-111.87 616.72,-111.87 616.72,-105.87 622.72,-99.87 628.72,-99.87 628.72,-99.87 795.72,-99.87 795.72,-99.87 801.72,-99.87 807.72,-105.87 807.72,-111.87 807.72,-111.87 807.72,-123.87 807.72,-123.87 807.72,-129.87 801.72,-135.87 795.72,-135.87"/>
<text text-anchor="middle" x="712.22" y="-114.17" font-family="Times,serif" font-size="14.00">Smart Irrigation System</text>
</g>
<!-- Farmer&#45;&gt;System -->
<g id="edge1" class="edge">
<title>Farmer&#45;&gt;System</title>
<path fill="none" stroke="black" d="M296.96,-175.26C381.94,-174.97 498.05,-170.61 598.72,-152.87 616.57,-149.72 635.55,-144.56 652.72,-139.16"/>
<polygon fill="black" stroke="black" points="654.17,-142.37 662.61,-135.96 652.02,-135.71 654.17,-142.37"/>
<text text-anchor="middle" x="483.72" y="-177.67" font-family="Times,serif" font-size="14.00">inputs</text>
</g>
<!-- Sensors -->
<g id="node2" class="node">
<title>Sensors</title>
<ellipse fill="none" stroke="black" cx="175.36" cy="-98.87" rx="175.23" ry="26.74"/>
<text text-anchor="middle" x="175.36" y="-102.67" font-family="Times,serif" font-size="14.00">IoT Sensors</text>
<text text-anchor="middle" x="175.36" y="-87.67" font-family="Times,serif" font-size="14.00">(soil moisture, EC, leaf wetness)</text>
</g>
<!-- Sensors&#45;&gt;System -->
<g id="edge2" class="edge">
<title>Sensors&#45;&gt;System</title>
<path fill="none" stroke="black" d="M346.93,-93.22C423.96,-92.23 516.04,-93.2 598.72,-99.87 601.27,-100.08 603.84,-100.31 606.44,-100.56"/>
<polygon fill="black" stroke="black" points="606.21,-104.05 616.52,-101.63 606.95,-97.09 606.21,-104.05"/>
<text text-anchor="middle" x="483.72" y="-103.67" font-family="Times,serif" font-size="14.00">sensor readings</text>
</g>
<!-- POWER -->
<g id="node3" class="node">
<title>POWER</title>
<ellipse fill="none" stroke="black" cx="175.36" cy="-26.87" rx="84.29" ry="26.74"/>
<text text-anchor="middle" x="175.36" y="-30.67" font-family="Times,serif" font-size="14.00">NASA POWER</text>
<text text-anchor="middle" x="175.36" y="-15.67" font-family="Times,serif" font-size="14.00">(weather API)</text>
</g>
<!-- POWER&#45;&gt;System -->
<g id="edge3" class="edge">
<title>POWER&#45;&gt;System</title>
<path fill="none" stroke="black" d="M259.2,-30.12C345.14,-34.93 482.93,-46.64 598.72,-74.87 619.93,-80.04 642.54,-88.14 661.89,-95.92"/>
<polygon fill="black" stroke="black" points="660.81,-99.27 671.39,-99.83 663.47,-92.79 660.81,-99.27"/>
<text text-anchor="middle" x="483.72" y="-78.67" font-family="Times,serif" font-size="14.00">weather</text>
</g>
<!-- System&#45;&gt;Farmer -->
<g id="edge4" class="edge">
<title>System&#45;&gt;Farmer</title>
<path fill="none" stroke="black" d="M616.4,-118.4C547.46,-119.74 452.02,-123.54 368.72,-133.87 335.92,-137.94 300.36,-144.52 268.84,-151.13"/>
<polygon fill="black" stroke="black" points="267.81,-147.77 258.75,-153.28 269.26,-154.62 267.81,-147.77"/>
<text text-anchor="middle" x="483.72" y="-137.67" font-family="Times,serif" font-size="14.00">recommendation: need?/amount</text>
</g>
</g>
</svg>
