<?xml version="1.0" encoding="UTF-8" standalone="no"?>
<!DOCTYPE svg PUBLIC "-//W3C//DTD SVG 1.1//EN"
 "http://www.w3.org/Graphics/SVG/1.1/DTD/svg11.dtd">
<!-- Generated by graphviz version 2.42.4 (0)
 -->
<!-- Title: DFD1 Pages: 1 -->
<svg width="1936pt" height="205pt"
 viewBox="0.00 0.00 1935.60 205.00" xmlns="http://www.w3.org/2000/svg" xmlns:xlink="http://www.w3.org/1999/xlink">
<g id="graph0" class="graph" transform="scale(1 1) rotate(0) translate(4 201)">
<title>DFD1</title>
<polygon fill="white" stroke="transparent" points="-4,4 -4,-201 1931.6,-201 1931.6,4 -4,4"/>
<g id="clust1" class="cluster">
<title>cluster_inputs</title>
<path fill="none" stroke="black" stroke-dasharray="5,2" d="M20,-8C20,-8 330.47,-8 330.47,-8 336.47,-8 342.47,-14 342.47,-20 342.47,-20 342.47,-177 342.47,-177 342.47,-183 336.47,-189 330.47,-189 330.47,-189 20,-189 20,-189 14,-189 8,-183 8,-177 8,-177 8,-20 8,-20 8,-14 14,-8 20,-8"/>
<text text-anchor="middle" x="175.24" y="-175.4" font-family="Times,serif" font-size="12.00">Inputs</text>
</g>
<!-- Ingest -->
<g id="node1" class="node">
<title>Ingest</title>
<path fill="#f1f8e9" stroke="black" d="M534.47,-107C534.47,-107 382.47,-107 382.47,-107 376.47,-107 370.47,-101 370.47,-95 370.47,-95 370.47,-81 370.47,-81 370.47,-75 376.47,-69 382.47,-69 382.47,-69 534.47,-69 534.47,-69 540.47,-69 546.47,-75 546.47,-81 546.47,-81 546.47,-95 546.47,-95 546.47,-101 540.47,-107 534.47,-107"/>
<text text-anchor="middle" x="458.47" y="-91.8" font-family="Times,serif" font-size="14.00">Ingestion &amp; Validation</text>
<text text-anchor="middle" x="458.47" y="-76.8" font-family="Times,serif" font-size="14.00">(range checks, units)</text>
</g>
<!-- Clean -->
<g id="node2" class="node">
<title>Clean</title>
<path fill="#f1f8e9" stroke="black" d="M750.47,-107C750.47,-107 594.47,-107 594.47,-107 588.47,-107 582.47,-101 582.47,-95 582.47,-95 582.47,-81 582.47,-81 582.47,-75 588.47,-69 594.47,-69 594.47,-69 750.47,-69 750.47,-69 756.47,-69 762.47,-75 762.47,-81 762.47,-81 762.47,-95 762.47,-95 762.47,-101 756.47,-107 750.47,-107"/>
<text text-anchor="middle" x="672.47" y="-91.8" font-family="Times,serif" font-size="14.00">Cleaning &amp; Imputation</text>
<text text-anchor="middle" x="672.47" y="-76.8" font-family="Times,serif" font-size="14.00">(winsorize, median)</text>
</g>
<!-- Ingest&#45;&gt;Clean -->
<g id="edge1" class="edge">
<title>Ingest&#45;&gt;Clean</title>
<path fill="none" stroke="black" d="M546.62,-88C555.07,-88 563.69,-88 572.25,-88"/>
<polygon fill="black" stroke="black" points="572.26,-91.5 582.26,-88 572.26,-84.5 572.26,-91.5"/>
</g>
<!-- FE -->
<g id="node3" class="node">
<title>FE</title>
<path fill="#f1f8e9" stroke="black" d="M1124.47,-107C1124.47,-107 810.47,-107 810.47,-107 804.47,-107 798.47,-101 798.47,-95 798.47,-95 798.47,-81 798.47,-81 798.47,-75 804.47,-69 810.47,-69 810.47,-69 1124.47,-69 1124.47,-69 1130.47,-69 1136.47,-75 1136.47,-81 1136.47,-81 1136.47,-95 1136.47,-95 1136.47,-101 1130.47,-107 1124.47,-107"/>
<text text-anchor="middle" x="967.47" y="-91.8" font-family="Times,serif" font-size="14.00">Feature Engineering</text>
<text text-anchor="middle" x="967.47" y="-76.8" font-family="Times,serif" font-size="14.00">(Tmean, VPD proxy, rolling rain/evap, deficit)</text>
</g>
<!-- Clean&#45;&gt;FE -->
<g id="edge2" class="edge">
<title>Clean&#45;&gt;FE</title>
<path fill="none" stroke="black" d="M762.57,-88C770.8,-88 779.32,-88 787.99,-88"/>
<polygon fill="black" stroke="black" points="788.24,-91.5 798.24,-88 788.24,-84.5 788.24,-91.5"/>
</g>
<!-- Clf -->
<g id="node4" class="node">
<title>Clf</title>
<path fill="#f1f8e9" stroke="black" d="M1261.47,-135C1261.47,-135 1196.47,-135 1196.47,-135 1190.47,-135 1184.47,-129 1184.47,-123 1184.47,-123 1184.47,-109 1184.47,-109 1184.47,-103 1190.47,-97 1196.47,-97 1196.47,-97 1261.47,-97 1261.47,-97 1267.47,-97 1273.47,-103 1273.47,-109 1273.47,-109 1273.47,-123 1273.47,-123 1273.47,-129 1267.47,-135 1261.47,-135"/>
<text text-anchor="middle" x="1228.97" y="-119.8" font-family="Times,serif" font-size="14.00">Classifier</text>
<text text-anchor="middle" x="1228.97" y="-104.8" font-family="Times,serif" font-size="14.00">(irrigate?)</text>
</g>
<!-- FE&#45;&gt;Clf -->
<g id="edge3" class="edge">
<title>FE&#45;&gt;Clf</title>
<path fill="none" stroke="black" d="M1136.48,-106.13C1149.76,-107.56 1162.45,-108.93 1173.93,-110.17"/>
<polygon fill="black" stroke="black" points="1173.79,-113.67 1184.11,-111.27 1174.54,-106.71 1173.79,-113.67"/>
</g>
<!-- Reg -->
<g id="node5" class="node">
<title>Reg</title>
<path fill="#f1f8e9" stroke="black" d="M1273.47,-79C1273.47,-79 1184.47,-79 1184.47,-79 1178.47,-79 1172.47,-73 1172.47,-67 1172.47,-67 1172.47,-53 1172.47,-53 1172.47,-47 1178.47,-41 1184.47,-41 1184.47,-41 1273.47,-41 1273.47,-41 1279.47,-41 1285.47,-47 1285.47,-53 1285.47,-53 1285.47,-67 1285.47,-67 1285.47,-73 1279.47,-79 1273.47,-79"/>
<text text-anchor="middle" x="1228.97" y="-63.8" font-family="Times,serif" font-size="14.00">Regressor</text>
<text text-anchor="middle" x="1228.97" y="-48.8" font-family="Times,serif" font-size="14.00">(amount mm)</text>
</g>
<!-- FE&#45;&gt;Reg -->
<g id="edge4" class="edge">
<title>FE&#45;&gt;Reg</title>
<path fill="none" stroke="black" d="M1136.48,-69.87C1145.39,-68.91 1154.03,-67.98 1162.22,-67.09"/>
<polygon fill="black" stroke="black" points="1162.77,-70.56 1172.33,-66 1162.02,-63.6 1162.77,-70.56"/>
</g>
<!-- Rules -->
<g id="node6" class="node">
<title>Rules</title>
<path fill="#f1f8e9" stroke="black" d="M1568.47,-107C1568.47,-107 1333.47,-107 1333.47,-107 1327.47,-107 1321.47,-101 1321.47,-95 1321.47,-95 1321.47,-81 1321.47,-81 1321.47,-75 1327.47,-69 1333.47,-69 1333.47,-69 1568.47,-69 1568.47,-69 1574.47,-69 1580.47,-75 1580.47,-81 1580.47,-81 1580.47,-95 1580.47,-95 1580.47,-101 1574.47,-107 1568.47,-107"/>
<text text-anchor="middle" x="1450.97" y="-91.8" font-family="Times,serif" font-size="14.00">Threshold &amp; Safety</text>
<text text-anchor="middle" x="1450.97" y="-76.8" font-family="Times,serif" font-size="14.00">(deep layer override, clamp 0..12)</text>
</g>
<!-- Clf&#45;&gt;Rules -->
<g id="edge5" class="edge">
<title>Clf&#45;&gt;Rules</title>
<path fill="none" stroke="black" d="M1273.7,-110.43C1285.09,-108.98 1298,-107.34 1311.52,-105.62"/>
<polygon fill="black" stroke="black" points="1311.99,-109.09 1321.47,-104.36 1311.1,-102.15 1311.99,-109.09"/>
</g>
<!-- Reg&#45;&gt;Rules -->
<g id="edge6" class="edge">
<title>Reg&#45;&gt;Rules</title>
<path fill="none" stroke="black" d="M1285.49,-67.07C1293.63,-68.1 1302.3,-69.21 1311.24,-70.34"/>
<polygon fill="black" stroke="black" points="1311.08,-73.85 1321.44,-71.64 1311.96,-66.91 1311.08,-73.85"/>
</g>
<!-- Out -->
<g id="node7" class="node">
<title>Out</title>
<ellipse fill="#fffde7" stroke="black" cx="1772.04" cy="-88" rx="155.63" ry="26.74"/>
<text text-anchor="middle" x="1772.04" y="-91.8" font-family="Times,serif" font-size="14.00">Recommendation</text>
<text text-anchor="middle" x="1772.04" y="-76.8" font-family="Times,serif" font-size="14.00">{need?, amount_mm, liters}</text>
</g>
<!-- Rules&#45;&gt;Out -->
<g id="edge7" class="edge">
<title>Rules&#45;&gt;Out</title>
<path fill="none" stroke="black" d="M1580.83,-88C1589.22,-88 1597.73,-88 1606.26,-88"/>
<polygon fill="black" stroke="black" points="1606.27,-91.5 1616.27,-88 1606.27,-84.5 1606.27,-91.5"/>
</g>
<!-- Farmer -->
<g id="node8" class="node">
<title>Farmer</title>
<ellipse fill="#f1f8e9" stroke="black" cx="175.24" cy="-142" rx="79.89" ry="18"/>
<text text-anchor="middle" x="175.24" y="-138.3" font-family="Times,serif" font-size="14.00">Farmer factors</text>
</g>
<!-- Farmer&#45;&gt;Ingest -->
<g id="edge8" class="edge">
<title>Farmer&#45;&gt;Ingest</title>
<path fill="none" stroke="black" d="M242.76,-132.28C273.24,-127.55 309.78,-121.49 342.47,-115 351.34,-113.24 360.55,-111.29 369.74,-109.26"/>
<polygon fill="black" stroke="black" points="370.69,-112.64 379.69,-107.04 369.16,-105.8 370.69,-112.64"/>
</g>
<!-- Weather -->
<g id="node9" class="node">
<title>Weather</title>
<ellipse fill="#f1f8e9" stroke="black" cx="175.24" cy="-88" rx="159.47" ry="18"/>
<text text-anchor="middle" x="175.24" y="-84.3" font-family="Times,serif" font-size="14.00">Weather (POWER/CSV/defaults)</text>
</g>
<!-- Weather&#45;&gt;Ingest -->
<g id="edge9" class="edge">
<title>Weather&#45;&gt;Ingest</title>
<path fill="none" stroke="black" d="M334.53,-88C343.23,-88 351.84,-88 360.22,-88"/>
<polygon fill="black" stroke="black" points="360.32,-91.5 370.32,-88 360.32,-84.5 360.32,-91.5"/>
</g>
<!-- Sns -->
<g id="node10" class="node">
<title>Sns</title>
<ellipse fill="#f1f8e9" stroke="black" cx="175.24" cy="-34" rx="48.19" ry="18"/>
<text text-anchor="middle" x="175.24" y="-30.3" font-family="Times,serif" font-size="14.00">Sensors</text>
</g>
<!-- Sns&#45;&gt;Ingest -->
<g id="edge10" class="edge">
<title>Sns&#45;&gt;Ingest</title>
<path fill="none" stroke="black" d="M220.49,-40.33C254.07,-45.34 301.32,-52.84 342.47,-61 351.34,-62.76 360.55,-64.71 369.74,-66.74"/>
<polygon fill="black" stroke="black" points="369.16,-70.2 379.69,-68.96 370.69,-63.36 369.16,-70.2"/>
</g>
</g>
</svg>
