<?xml version="1.0" encoding="UTF-8" standalone="no"?>
<!DOCTYPE svg PUBLIC "-//W3C//DTD SVG 1.1//EN"
 "http://www.w3.org/Graphics/SVG/1.1/DTD/svg11.dtd">
<!-- Generated by graphviz version 2.42.4 (0)
 -->
<!-- Title: ModelOverview Pages: 1 -->
<svg width="1884pt" height="94pt"
 viewBox="0.00 0.00 1884.13 93.87" xmlns="http://www.w3.org/2000/svg" xmlns:xlink="http://www.w3.org/1999/xlink">
<g id="graph0" class="graph" transform="scale(1 1) rotate(0) translate(4 89.87)">
<title>ModelOverview</title>
<polygon fill="white" stroke="transparent" points="-4,4 -4,-89.87 1880.13,-89.87 1880.13,4 -4,4"/>
<!-- Inputs -->
<g id="node1" class="node">
<title>Inputs</title>
<path fill="#e8eaf6" stroke="black" d="M325,-57.37C325,-57.37 12,-57.37 12,-57.37 6,-57.37 0,-51.37 0,-45.37 0,-45.37 0,-16.37 0,-16.37 0,-10.37 6,-4.37 12,-4.37 12,-4.37 325,-4.37 325,-4.37 331,-4.37 337,-10.37 337,-16.37 337,-16.37 337,-45.37 337,-45.37 337,-51.37 331,-57.37 325,-57.37"/>
<text text-anchor="middle" x="168.5" y="-42.17" font-family="Times,serif" font-size="14.00">Inputs</text>
<text text-anchor="middle" x="168.5" y="-27.17" font-family="Times,serif" font-size="14.00">{soil_top, soil_deep, RH, wind, solar, rain,</text>
<text text-anchor="middle" x="168.5" y="-12.17" font-family="Times,serif" font-size="14.00">leaf_wet, flow, EC, days_since_last} + region</text>
</g>
<!-- FE -->
<g id="node2" class="node">
<title>FE</title>
<path fill="#e8f5e9" stroke="black" d="M619,-57.37C619,-57.37 386,-57.37 386,-57.37 380,-57.37 374,-51.37 374,-45.37 374,-45.37 374,-16.37 374,-16.37 374,-10.37 380,-4.37 386,-4.37 386,-4.37 619,-4.37 619,-4.37 625,-4.37 631,-10.37 631,-16.37 631,-16.37 631,-45.37 631,-45.37 631,-51.37 625,-57.37 619,-57.37"/>
<text text-anchor="middle" x="502.5" y="-42.17" font-family="Times,serif" font-size="14.00">Feature Engineering</text>
<text text-anchor="middle" x="502.5" y="-27.17" font-family="Times,serif" font-size="14.00">Tmean, diurnal range, VPD proxy,</text>
<text text-anchor="middle" x="502.5" y="-12.17" font-family="Times,serif" font-size="14.00">rolling rain/evap, deficit proxy</text>
</g>
<!-- Inputs&#45;&gt;FE -->
<g id="edge1" class="edge">
<title>Inputs&#45;&gt;FE</title>
<path fill="none" stroke="black" d="M337.45,-30.87C346.23,-30.87 355.01,-30.87 363.68,-30.87"/>
<polygon fill="black" stroke="black" points="363.81,-34.37 373.81,-30.87 363.81,-27.37 363.81,-34.37"/>
</g>
<!-- Clf -->
<g id="node3" class="node">
<title>Clf</title>
<path fill="#fff3e0" stroke="black" d="M851,-49.87C851,-49.87 680,-49.87 680,-49.87 674,-49.87 668,-43.87 668,-37.87 668,-37.87 668,-23.87 668,-23.87 668,-17.87 674,-11.87 680,-11.87 680,-11.87 851,-11.87 851,-11.87 857,-11.87 863,-17.87 863,-23.87 863,-23.87 863,-37.87 863,-37.87 863,-43.87 857,-49.87 851,-49.87"/>
<text text-anchor="middle" x="765.5" y="-34.67" font-family="Times,serif" font-size="14.00">Classifier (LR)</text>
<text text-anchor="middle" x="765.5" y="-19.67" font-family="Times,serif" font-size="14.00">p = sigmoid(b0 + b^T x)</text>
</g>
<!-- FE&#45;&gt;Clf -->
<g id="edge2" class="edge">
<title>FE&#45;&gt;Clf</title>
<path fill="none" stroke="black" d="M631.32,-30.87C640.14,-30.87 648.98,-30.87 657.67,-30.87"/>
<polygon fill="black" stroke="black" points="657.79,-34.37 667.79,-30.87 657.79,-27.37 657.79,-34.37"/>
</g>
<!-- Th -->
<g id="node4" class="node">
<title>Th</title>
<path fill="#fff3e0" stroke="black" d="M1001,-49.87C1001,-49.87 912,-49.87 912,-49.87 906,-49.87 900,-43.87 900,-37.87 900,-37.87 900,-23.87 900,-23.87 900,-17.87 906,-11.87 912,-11.87 912,-11.87 1001,-11.87 1001,-11.87 1007,-11.87 1013,-17.87 1013,-23.87 1013,-23.87 1013,-37.87 1013,-37.87 1013,-43.87 1007,-49.87 1001,-49.87"/>
<text text-anchor="middle" x="956.5" y="-34.67" font-family="Times,serif" font-size="14.00">Threshold τ_r</text>
<text text-anchor="middle" x="956.5" y="-19.67" font-family="Times,serif" font-size="14.00">region&#45;tuned</text>
</g>
<!-- Clf&#45;&gt;Th -->
<g id="edge3" class="edge">
<title>Clf&#45;&gt;Th</title>
<path fill="none" stroke="black" d="M863.21,-30.87C872.13,-30.87 881.01,-30.87 889.55,-30.87"/>
<polygon fill="black" stroke="black" points="889.78,-34.37 899.78,-30.87 889.78,-27.37 889.78,-34.37"/>
</g>
<!-- Reg -->
<g id="node5" class="node">
<title>Reg</title>
<path fill="#fffde7" stroke="black" d="M1320,-85.87C1320,-85.87 1131,-85.87 1131,-85.87 1125,-85.87 1119,-79.87 1119,-73.87 1119,-73.87 1119,-59.87 1119,-59.87 1119,-53.87 1125,-47.87 1131,-47.87 1131,-47.87 1320,-47.87 1320,-47.87 1326,-47.87 1332,-53.87 1332,-59.87 1332,-59.87 1332,-73.87 1332,-73.87 1332,-79.87 1326,-85.87 1320,-85.87"/>
<text text-anchor="middle" x="1225.5" y="-70.67" font-family="Times,serif" font-size="14.00">Regressor (RF)</text>
<text text-anchor="middle" x="1225.5" y="-55.67" font-family="Times,serif" font-size="14.00">amount_mm = avg_trees(x)</text>
</g>
<!-- Th&#45;&gt;Reg -->
<g id="edge4" class="edge">
<title>Th&#45;&gt;Reg</title>
<path fill="none" stroke="black" d="M1013.15,-38.37C1040.85,-42.11 1075.42,-46.77 1108.53,-51.23"/>
<polygon fill="black" stroke="black" points="1108.37,-54.74 1118.75,-52.61 1109.31,-47.81 1108.37,-54.74"/>
<text text-anchor="middle" x="1066" y="-53.67" font-family="Times,serif" font-size="14.00">if need=1</text>
</g>
<!-- Safe -->
<g id="node6" class="node">
<title>Safe</title>
<path fill="#fce4ec" stroke="black" d="M1516,-53.37C1516,-53.37 1381,-53.37 1381,-53.37 1375,-53.37 1369,-47.37 1369,-41.37 1369,-41.37 1369,-12.37 1369,-12.37 1369,-6.37 1375,-0.37 1381,-0.37 1381,-0.37 1516,-0.37 1516,-0.37 1522,-0.37 1528,-6.37 1528,-12.37 1528,-12.37 1528,-41.37 1528,-41.37 1528,-47.37 1522,-53.37 1516,-53.37"/>
<text text-anchor="middle" x="1448.5" y="-38.17" font-family="Times,serif" font-size="14.00">Safety Rules</text>
<text text-anchor="middle" x="1448.5" y="-23.17" font-family="Times,serif" font-size="14.00">if deep≥0.35 ⇒ skip</text>
<text text-anchor="middle" x="1448.5" y="-8.17" font-family="Times,serif" font-size="14.00">clamp 0..12 mm</text>
</g>
<!-- Th&#45;&gt;Safe -->
<g id="edge6" class="edge">
<title>Th&#45;&gt;Safe</title>
<path fill="none" stroke="black" d="M1013.16,-27.86C1044.29,-26.33 1083.79,-24.63 1119,-23.87 1213.64,-21.82 1237.34,-22.64 1332,-23.87 1340.67,-23.98 1349.71,-24.14 1358.74,-24.33"/>
<polygon fill="black" stroke="black" points="1358.84,-27.83 1368.91,-24.55 1358.99,-20.84 1358.84,-27.83"/>
<text text-anchor="middle" x="1225.5" y="-27.67" font-family="Times,serif" font-size="14.00">if need=0</text>
</g>
<!-- Reg&#45;&gt;Safe -->
<g id="edge5" class="edge">
<title>Reg&#45;&gt;Safe</title>
<path fill="none" stroke="black" d="M1331.5,-47.87C1340.64,-46.21 1349.84,-44.55 1358.83,-42.92"/>
<polygon fill="black" stroke="black" points="1359.67,-46.32 1368.88,-41.1 1358.42,-39.44 1359.67,-46.32"/>
</g>
<!-- Out -->
<g id="node7" class="node">
<title>Out</title>
<ellipse fill="#e1f5fe" stroke="black" cx="1720.56" cy="-26.87" rx="155.63" ry="26.74"/>
<text text-anchor="middle" x="1720.56" y="-30.67" font-family="Times,serif" font-size="14.00">Output</text>
<text text-anchor="middle" x="1720.56" y="-15.67" font-family="Times,serif" font-size="14.00">{need?, amount_mm, liters}</text>
</g>
<!-- Safe&#45;&gt;Out -->
<g id="edge7" class="edge">
<title>Safe&#45;&gt;Out</title>
<path fill="none" stroke="black" d="M1528.34,-26.87C1536.82,-26.87 1545.67,-26.87 1554.7,-26.87"/>
<polygon fill="black" stroke="black" points="1554.97,-30.37 1564.97,-26.87 1554.97,-23.37 1554.97,-30.37"/>
</g>
</g>
</svg>
