<?xml version="1.0" encoding="UTF-8" standalone="no"?>
<!DOCTYPE svg PUBLIC "-//W3C//DTD SVG 1.1//EN"
 "http://www.w3.org/Graphics/SVG/1.1/DTD/svg11.dtd">
<!-- Generated by graphviz version 2.42.4 (0)
 -->
<!-- Title: ModelOverviewCompact Pages: 1 -->
<svg width="773pt" height="460pt"
 viewBox="0.00 0.00 773.00 459.74" xmlns="http://www.w3.org/2000/svg" xmlns:xlink="http://www.w3.org/1999/xlink">
<g id="graph0" class="graph" transform="scale(1 1) rotate(0) translate(4 455.74)">
<title>ModelOverviewCompact</title>
<polygon fill="white" stroke="transparent" points="-4,4 -4,-455.74 769,-455.74 769,4 -4,4"/>
<g id="clust1" class="cluster">
<title>cluster_inputs</title>
<path fill="none" stroke="#ccddee" stroke-width="1.2" stroke-dasharray="5,2" d="M40,-347.74C40,-347.74 745,-347.74 745,-347.74 751,-347.74 757,-353.74 757,-359.74 757,-359.74 757,-431.74 757,-431.74 757,-437.74 751,-443.74 745,-443.74 745,-443.74 40,-443.74 40,-443.74 34,-443.74 28,-437.74 28,-431.74 28,-431.74 28,-359.74 28,-359.74 28,-353.74 34,-347.74 40,-347.74"/>
<text text-anchor="middle" x="392.5" y="-430.14" font-family="Times,serif" font-size="12.00">Inputs</text>
</g>
<g id="clust2" class="cluster">
<title>cluster_models</title>
<path fill="none" stroke="#ccddee" stroke-width="1.2" stroke-dasharray="5,2" d="M20,-149.74C20,-149.74 488,-149.74 488,-149.74 494,-149.74 500,-155.74 500,-161.74 500,-161.74 500,-233.74 500,-233.74 500,-239.74 494,-245.74 488,-245.74 488,-245.74 20,-245.74 20,-245.74 14,-245.74 8,-239.74 8,-233.74 8,-233.74 8,-161.74 8,-161.74 8,-155.74 14,-149.74 20,-149.74"/>
<text text-anchor="middle" x="254" y="-232.14" font-family="Times,serif" font-size="12.00">Models</text>
</g>
<!-- In1 -->
<g id="node1" class="node">
<title>In1</title>
<path fill="#eef7ff" stroke="black" d="M213.5,-392.74C213.5,-392.74 48.5,-392.74 48.5,-392.74 42.5,-392.74 36.5,-386.74 36.5,-380.74 36.5,-380.74 36.5,-368.74 36.5,-368.74 36.5,-362.74 42.5,-356.74 48.5,-356.74 48.5,-356.74 213.5,-356.74 213.5,-356.74 219.5,-356.74 225.5,-362.74 225.5,-368.74 225.5,-368.74 225.5,-380.74 225.5,-380.74 225.5,-386.74 219.5,-392.74 213.5,-392.74"/>
<text text-anchor="middle" x="131" y="-371.04" font-family="Times,serif" font-size="14.00">Soil moisture (top/deep)</text>
</g>
<!-- FE -->
<g id="node4" class="node">
<title>FE</title>
<path fill="#e8f5e9" stroke="black" d="M523,-322.74C523,-322.74 223,-322.74 223,-322.74 217,-322.74 211,-316.74 211,-310.74 211,-310.74 211,-296.74 211,-296.74 211,-290.74 217,-284.74 223,-284.74 223,-284.74 523,-284.74 523,-284.74 529,-284.74 535,-290.74 535,-296.74 535,-296.74 535,-310.74 535,-310.74 535,-316.74 529,-322.74 523,-322.74"/>
<text text-anchor="middle" x="373" y="-307.54" font-family="Times,serif" font-size="14.00">Feature Engineering</text>
<text text-anchor="middle" x="373" y="-292.54" font-family="Times,serif" font-size="14.00">Tmean, ΔT, VPD*, rolling rain/evap, deficit*</text>
</g>
<!-- In1&#45;&gt;FE -->
<g id="edge1" class="edge">
<title>In1&#45;&gt;FE</title>
<path fill="none" stroke="black" d="M190.82,-356.68C223.83,-347.27 265.08,-335.51 299.98,-325.56"/>
<polygon fill="black" stroke="black" points="300.98,-328.91 309.64,-322.81 299.06,-322.18 300.98,-328.91"/>
</g>
<!-- In2 -->
<g id="node2" class="node">
<title>In2</title>
<path fill="#eef7ff" stroke="black" d="M483.5,-393.74C483.5,-393.74 262.5,-393.74 262.5,-393.74 256.5,-393.74 250.5,-387.74 250.5,-381.74 250.5,-381.74 250.5,-367.74 250.5,-367.74 250.5,-361.74 256.5,-355.74 262.5,-355.74 262.5,-355.74 483.5,-355.74 483.5,-355.74 489.5,-355.74 495.5,-361.74 495.5,-367.74 495.5,-367.74 495.5,-381.74 495.5,-381.74 495.5,-387.74 489.5,-393.74 483.5,-393.74"/>
<text text-anchor="middle" x="373" y="-378.54" font-family="Times,serif" font-size="14.00">Weather (POWER/CSV/defaults)</text>
<text text-anchor="middle" x="373" y="-363.54" font-family="Times,serif" font-size="14.00">Tmean, RH, wind, solar, rain</text>
</g>
<!-- In2&#45;&gt;FE -->
<g id="edge2" class="edge">
<title>In2&#45;&gt;FE</title>
<path fill="none" stroke="black" d="M373,-355.61C373,-348.69 373,-340.63 373,-332.99"/>
<polygon fill="black" stroke="black" points="376.5,-332.99 373,-322.99 369.5,-332.99 376.5,-332.99"/>
</g>
<!-- In3 -->
<g id="node3" class="node">
<title>In3</title>
<path fill="#eef7ff" stroke="black" d="M737,-393.74C737,-393.74 533,-393.74 533,-393.74 527,-393.74 521,-387.74 521,-381.74 521,-381.74 521,-367.74 521,-367.74 521,-361.74 527,-355.74 533,-355.74 533,-355.74 737,-355.74 737,-355.74 743,-355.74 749,-361.74 749,-367.74 749,-367.74 749,-381.74 749,-381.74 749,-387.74 743,-393.74 737,-393.74"/>
<text text-anchor="middle" x="635" y="-378.54" font-family="Times,serif" font-size="14.00">Farmer factors</text>
<text text-anchor="middle" x="635" y="-363.54" font-family="Times,serif" font-size="14.00">leaf_wet, flow, EC, days_since</text>
</g>
<!-- In3&#45;&gt;FE -->
<g id="edge3" class="edge">
<title>In3&#45;&gt;FE</title>
<path fill="none" stroke="black" d="M566.5,-355.7C531.3,-346.43 488.24,-335.09 451.68,-325.46"/>
<polygon fill="black" stroke="black" points="452.11,-321.96 441.55,-322.79 450.33,-328.72 452.11,-321.96"/>
</g>
<!-- Clf -->
<g id="node5" class="node">
<title>Clf</title>
<path fill="#fff3e0" stroke="black" d="M480.5,-195.74C480.5,-195.74 265.5,-195.74 265.5,-195.74 259.5,-195.74 253.5,-189.74 253.5,-183.74 253.5,-183.74 253.5,-169.74 253.5,-169.74 253.5,-163.74 259.5,-157.74 265.5,-157.74 265.5,-157.74 480.5,-157.74 480.5,-157.74 486.5,-157.74 492.5,-163.74 492.5,-169.74 492.5,-169.74 492.5,-183.74 492.5,-183.74 492.5,-189.74 486.5,-195.74 480.5,-195.74"/>
<text text-anchor="middle" x="373" y="-180.54" font-family="Times,serif" font-size="14.00">Classifier (Logistic Regression)</text>
<text text-anchor="middle" x="373" y="-165.54" font-family="Times,serif" font-size="14.00">p = σ(β₀ + βᵀx)</text>
</g>
<!-- FE&#45;&gt;Clf -->
<g id="edge4" class="edge">
<title>FE&#45;&gt;Clf</title>
<path fill="none" stroke="black" d="M373,-284.56C373,-264.01 373,-230.29 373,-206.23"/>
<polygon fill="black" stroke="black" points="376.5,-205.94 373,-195.94 369.5,-205.94 376.5,-205.94"/>
</g>
<!-- Thr -->
<g id="node7" class="node">
<title>Thr</title>
<path fill="#fff8e1" stroke="black" d="M750,-194.74C750,-194.74 554,-194.74 554,-194.74 548,-194.74 542,-188.74 542,-182.74 542,-182.74 542,-170.74 542,-170.74 542,-164.74 548,-158.74 554,-158.74 554,-158.74 750,-158.74 750,-158.74 756,-158.74 762,-164.74 762,-170.74 762,-170.74 762,-182.74 762,-182.74 762,-188.74 756,-194.74 750,-194.74"/>
<text text-anchor="middle" x="652" y="-173.04" font-family="Times,serif" font-size="14.00">Threshold τ_r (region&#45;tuned)</text>
</g>
<!-- Clf&#45;&gt;Thr -->
<g id="edge5" class="edge">
<title>Clf&#45;&gt;Thr</title>
<path fill="none" stroke="black" d="M492.61,-176.74C505.55,-176.74 518.48,-176.74 531.42,-176.74"/>
<polygon fill="black" stroke="black" points="531.8,-180.24 541.8,-176.74 531.8,-173.24 531.8,-180.24"/>
</g>
<!-- Reg -->
<g id="node6" class="node">
<title>Reg</title>
<path fill="#fff3e0" stroke="black" d="M216.5,-195.74C216.5,-195.74 27.5,-195.74 27.5,-195.74 21.5,-195.74 15.5,-189.74 15.5,-183.74 15.5,-183.74 15.5,-169.74 15.5,-169.74 15.5,-163.74 21.5,-157.74 27.5,-157.74 27.5,-157.74 216.5,-157.74 216.5,-157.74 222.5,-157.74 228.5,-163.74 228.5,-169.74 228.5,-169.74 228.5,-183.74 228.5,-183.74 228.5,-189.74 222.5,-195.74 216.5,-195.74"/>
<text text-anchor="middle" x="122" y="-180.54" font-family="Times,serif" font-size="14.00">Regressor (Random Forest)</text>
<text text-anchor="middle" x="122" y="-165.54" font-family="Times,serif" font-size="14.00">amount_mm = avg_trees(x)</text>
</g>
<!-- Safe -->
<g id="node8" class="node">
<title>Safe</title>
<path fill="#fdebd0" stroke="black" d="M519.5,-124.74C519.5,-124.74 252.5,-124.74 252.5,-124.74 246.5,-124.74 240.5,-118.74 240.5,-112.74 240.5,-112.74 240.5,-98.74 240.5,-98.74 240.5,-92.74 246.5,-86.74 252.5,-86.74 252.5,-86.74 519.5,-86.74 519.5,-86.74 525.5,-86.74 531.5,-92.74 531.5,-98.74 531.5,-98.74 531.5,-112.74 531.5,-112.74 531.5,-118.74 525.5,-124.74 519.5,-124.74"/>
<text text-anchor="middle" x="386" y="-109.54" font-family="Times,serif" font-size="14.00">Safety Rules</text>
<text text-anchor="middle" x="386" y="-94.54" font-family="Times,serif" font-size="14.00">if deep≥0.35 ⇒ skip • clamp 0..12 mm</text>
</g>
<!-- Reg&#45;&gt;Safe -->
<g id="edge9" class="edge">
<title>Reg&#45;&gt;Safe</title>
<path fill="none" stroke="black" d="M191.02,-157.7C226.64,-148.39 270.25,-136.99 307.19,-127.34"/>
<polygon fill="black" stroke="black" points="308.14,-130.71 316.93,-124.79 306.37,-123.94 308.14,-130.71"/>
</g>
<!-- Thr&#45;&gt;Reg -->
<g id="edge8" class="edge">
<title>Thr&#45;&gt;Reg</title>
<path fill="none" stroke="black" d="M623.44,-194.8C594.95,-211.68 549.3,-235.75 506,-245.74 448.62,-258.98 297.29,-263.05 241,-245.74 210.03,-236.22 178.47,-217.41 155.63,-201.83"/>
<polygon fill="black" stroke="black" points="157.54,-198.89 147.33,-196.04 153.53,-204.63 157.54,-198.89"/>
<text text-anchor="middle" x="304" y="-257.54" font-family="Times,serif" font-size="14.00">if need=1</text>
</g>
<!-- Thr&#45;&gt;Safe -->
<g id="edge6" class="edge">
<title>Thr&#45;&gt;Safe</title>
<path fill="none" stroke="black" d="M586.25,-158.68C549.81,-149.23 504.24,-137.41 465.77,-127.43"/>
<polygon fill="black" stroke="black" points="466.2,-123.93 455.64,-124.81 464.44,-130.7 466.2,-123.93"/>
</g>
<!-- Out -->
<g id="node9" class="node">
<title>Out</title>
<ellipse fill="#e1f5fe" stroke="black" cx="386" cy="-26.87" rx="155.63" ry="26.74"/>
<text text-anchor="middle" x="386" y="-30.67" font-family="Times,serif" font-size="14.00">Recommendation</text>
<text text-anchor="middle" x="386" y="-15.67" font-family="Times,serif" font-size="14.00">{need?, amount_mm, liters}</text>
</g>
<!-- Safe&#45;&gt;Out -->
<g id="edge7" class="edge">
<title>Safe&#45;&gt;Out</title>
<path fill="none" stroke="black" d="M386,-86.52C386,-79.73 386,-71.76 386,-63.93"/>
<polygon fill="black" stroke="black" points="389.5,-63.81 386,-53.81 382.5,-63.81 389.5,-63.81"/>
</g>
</g>
</svg>
