<?xml version="1.0" encoding="UTF-8" standalone="no"?>
<!DOCTYPE svg PUBLIC "-//W3C//DTD SVG 1.1//EN"
 "http://www.w3.org/Graphics/SVG/1.1/DTD/svg11.dtd">
<!-- Generated by graphviz version 2.42.4 (0)
 -->
<!-- Title: Preprocess Pages: 1 -->
<svg width="338pt" height="704pt"
 viewBox="0.00 0.00 338.00 704.00" xmlns="http://www.w3.org/2000/svg" xmlns:xlink="http://www.w3.org/1999/xlink">
<g id="graph0" class="graph" transform="scale(1 1) rotate(0) translate(4 700)">
<title>Preprocess</title>
<polygon fill="white" stroke="transparent" points="-4,4 -4,-700 334,-700 334,4 -4,4"/>
<!-- A -->
<g id="node1" class="node">
<title>A</title>
<path fill="none" stroke="black" d="M180,-696C180,-696 150,-696 150,-696 144,-696 138,-690 138,-684 138,-684 138,-672 138,-672 138,-666 144,-660 150,-660 150,-660 180,-660 180,-660 186,-660 192,-666 192,-672 192,-672 192,-684 192,-684 192,-690 186,-696 180,-696"/>
<text text-anchor="middle" x="165" y="-674.3" font-family="Times,serif" font-size="14.00">Start</text>
</g>
<!-- B -->
<g id="node2" class="node">
<title>B</title>
<path fill="none" stroke="black" d="M284.5,-624C284.5,-624 45.5,-624 45.5,-624 39.5,-624 33.5,-618 33.5,-612 33.5,-612 33.5,-600 33.5,-600 33.5,-594 39.5,-588 45.5,-588 45.5,-588 284.5,-588 284.5,-588 290.5,-588 296.5,-594 296.5,-600 296.5,-600 296.5,-612 296.5,-612 296.5,-618 290.5,-624 284.5,-624"/>
<text text-anchor="middle" x="165" y="-602.3" font-family="Times,serif" font-size="14.00">Ingest POWER/sensor/farmer data</text>
</g>
<!-- A&#45;&gt;B -->
<g id="edge1" class="edge">
<title>A&#45;&gt;B</title>
<path fill="none" stroke="black" d="M165,-659.7C165,-651.98 165,-642.71 165,-634.11"/>
<polygon fill="black" stroke="black" points="168.5,-634.1 165,-624.1 161.5,-634.1 168.5,-634.1"/>
</g>
<!-- C -->
<g id="node3" class="node">
<title>C</title>
<path fill="none" stroke="black" d="M248,-552C248,-552 82,-552 82,-552 76,-552 70,-546 70,-540 70,-540 70,-526 70,-526 70,-520 76,-514 82,-514 82,-514 248,-514 248,-514 254,-514 260,-520 260,-526 260,-526 260,-540 260,-540 260,-546 254,-552 248,-552"/>
<text text-anchor="middle" x="165" y="-536.8" font-family="Times,serif" font-size="14.00">Validate &amp; range checks</text>
<text text-anchor="middle" x="165" y="-521.8" font-family="Times,serif" font-size="14.00">(units: mm, m/s, MJ/m²)</text>
</g>
<!-- B&#45;&gt;C -->
<g id="edge2" class="edge">
<title>B&#45;&gt;C</title>
<path fill="none" stroke="black" d="M165,-587.81C165,-580.11 165,-570.82 165,-562.15"/>
<polygon fill="black" stroke="black" points="168.5,-562.02 165,-552.02 161.5,-562.02 168.5,-562.02"/>
</g>
<!-- D -->
<g id="node4" class="node">
<title>D</title>
<path fill="none" stroke="black" d="M250.5,-478C250.5,-478 79.5,-478 79.5,-478 73.5,-478 67.5,-472 67.5,-466 67.5,-466 67.5,-452 67.5,-452 67.5,-446 73.5,-440 79.5,-440 79.5,-440 250.5,-440 250.5,-440 256.5,-440 262.5,-446 262.5,-452 262.5,-452 262.5,-466 262.5,-466 262.5,-472 256.5,-478 250.5,-478"/>
<text text-anchor="middle" x="165" y="-462.8" font-family="Times,serif" font-size="14.00">Clean &amp; clip outliers</text>
<text text-anchor="middle" x="165" y="-447.8" font-family="Times,serif" font-size="14.00">(winsorize, fix negatives)</text>
</g>
<!-- C&#45;&gt;D -->
<g id="edge3" class="edge">
<title>C&#45;&gt;D</title>
<path fill="none" stroke="black" d="M165,-513.83C165,-506.13 165,-496.97 165,-488.42"/>
<polygon fill="black" stroke="black" points="168.5,-488.41 165,-478.41 161.5,-488.41 168.5,-488.41"/>
</g>
<!-- E -->
<g id="node5" class="node">
<title>E</title>
<path fill="none" stroke="black" d="M250,-404C250,-404 80,-404 80,-404 74,-404 68,-398 68,-392 68,-392 68,-378 68,-378 68,-372 74,-366 80,-366 80,-366 250,-366 250,-366 256,-366 262,-372 262,-378 262,-378 262,-392 262,-392 262,-398 256,-404 250,-404"/>
<text text-anchor="middle" x="165" y="-388.8" font-family="Times,serif" font-size="14.00">Handle missing values</text>
<text text-anchor="middle" x="165" y="-373.8" font-family="Times,serif" font-size="14.00">(structural vs incidental)</text>
</g>
<!-- D&#45;&gt;E -->
<g id="edge4" class="edge">
<title>D&#45;&gt;E</title>
<path fill="none" stroke="black" d="M165,-439.83C165,-432.13 165,-422.97 165,-414.42"/>
<polygon fill="black" stroke="black" points="168.5,-414.41 165,-404.41 161.5,-414.41 168.5,-414.41"/>
</g>
<!-- F -->
<g id="node6" class="node">
<title>F</title>
<path fill="none" stroke="black" d="M254.5,-330C254.5,-330 75.5,-330 75.5,-330 69.5,-330 63.5,-324 63.5,-318 63.5,-318 63.5,-304 63.5,-304 63.5,-298 69.5,-292 75.5,-292 75.5,-292 254.5,-292 254.5,-292 260.5,-292 266.5,-298 266.5,-304 266.5,-304 266.5,-318 266.5,-318 266.5,-324 260.5,-330 254.5,-330"/>
<text text-anchor="middle" x="165" y="-314.8" font-family="Times,serif" font-size="14.00">Impute incidental missing</text>
<text text-anchor="middle" x="165" y="-299.8" font-family="Times,serif" font-size="14.00">(median in Pipeline)</text>
</g>
<!-- E&#45;&gt;F -->
<g id="edge5" class="edge">
<title>E&#45;&gt;F</title>
<path fill="none" stroke="black" d="M165,-365.83C165,-358.13 165,-348.97 165,-340.42"/>
<polygon fill="black" stroke="black" points="168.5,-340.41 165,-330.41 161.5,-340.41 168.5,-340.41"/>
</g>
<!-- G -->
<g id="node7" class="node">
<title>G</title>
<path fill="none" stroke="black" d="M318,-256C318,-256 12,-256 12,-256 6,-256 0,-250 0,-244 0,-244 0,-230 0,-230 0,-224 6,-218 12,-218 12,-218 318,-218 318,-218 324,-218 330,-224 330,-230 330,-230 330,-244 330,-244 330,-250 324,-256 318,-256"/>
<text text-anchor="middle" x="165" y="-240.8" font-family="Times,serif" font-size="14.00">Engineer features</text>
<text text-anchor="middle" x="165" y="-225.8" font-family="Times,serif" font-size="14.00">(Tmean, ΔT, VPD*, deficit*, rolling windows)</text>
</g>
<!-- F&#45;&gt;G -->
<g id="edge6" class="edge">
<title>F&#45;&gt;G</title>
<path fill="none" stroke="black" d="M165,-291.83C165,-284.13 165,-274.97 165,-266.42"/>
<polygon fill="black" stroke="black" points="168.5,-266.41 165,-256.41 161.5,-266.41 168.5,-266.41"/>
</g>
<!-- H -->
<g id="node8" class="node">
<title>H</title>
<path fill="none" stroke="black" d="M240,-182C240,-182 90,-182 90,-182 84,-182 78,-176 78,-170 78,-170 78,-156 78,-156 78,-150 84,-144 90,-144 90,-144 240,-144 240,-144 246,-144 252,-150 252,-156 252,-156 252,-170 252,-170 252,-176 246,-182 240,-182"/>
<text text-anchor="middle" x="165" y="-166.8" font-family="Times,serif" font-size="14.00">Split 75/25 stratified</text>
<text text-anchor="middle" x="165" y="-151.8" font-family="Times,serif" font-size="14.00">(train/test) + CV folds</text>
</g>
<!-- G&#45;&gt;H -->
<g id="edge7" class="edge">
<title>G&#45;&gt;H</title>
<path fill="none" stroke="black" d="M165,-217.83C165,-210.13 165,-200.97 165,-192.42"/>
<polygon fill="black" stroke="black" points="168.5,-192.41 165,-182.41 161.5,-192.41 168.5,-192.41"/>
</g>
<!-- I -->
<g id="node9" class="node">
<title>I</title>
<path fill="none" stroke="black" d="M275.5,-108C275.5,-108 54.5,-108 54.5,-108 48.5,-108 42.5,-102 42.5,-96 42.5,-96 42.5,-84 42.5,-84 42.5,-78 48.5,-72 54.5,-72 54.5,-72 275.5,-72 275.5,-72 281.5,-72 287.5,-78 287.5,-84 287.5,-84 287.5,-96 287.5,-96 287.5,-102 281.5,-108 275.5,-108"/>
<text text-anchor="middle" x="165" y="-86.3" font-family="Times,serif" font-size="14.00">Persist feature order &amp; Pipeline</text>
</g>
<!-- H&#45;&gt;I -->
<g id="edge8" class="edge">
<title>H&#45;&gt;I</title>
<path fill="none" stroke="black" d="M165,-143.72C165,-135.97 165,-126.79 165,-118.27"/>
<polygon fill="black" stroke="black" points="168.5,-118 165,-108 161.5,-118 168.5,-118"/>
</g>
<!-- J -->
<g id="node10" class="node">
<title>J</title>
<path fill="none" stroke="black" d="M180,-36C180,-36 150,-36 150,-36 144,-36 138,-30 138,-24 138,-24 138,-12 138,-12 138,-6 144,0 150,0 150,0 180,0 180,0 186,0 192,-6 192,-12 192,-12 192,-24 192,-24 192,-30 186,-36 180,-36"/>
<text text-anchor="middle" x="165" y="-14.3" font-family="Times,serif" font-size="14.00">End</text>
</g>
<!-- I&#45;&gt;J -->
<g id="edge9" class="edge">
<title>I&#45;&gt;J</title>
<path fill="none" stroke="black" d="M165,-71.7C165,-63.98 165,-54.71 165,-46.11"/>
<polygon fill="black" stroke="black" points="168.5,-46.1 165,-36.1 161.5,-46.1 168.5,-46.1"/>
</g>
</g>
</svg>
