<?xml version="1.0" encoding="UTF-8" standalone="no"?>
<!DOCTYPE svg PUBLIC "-//W3C//DTD SVG 1.1//EN"
 "http://www.w3.org/Graphics/SVG/1.1/DTD/svg11.dtd">
<!-- Generated by graphviz version 2.42.4 (0)
 -->
<!-- Title: ResearchDesign Pages: 1 -->
<svg width="517pt" height="747pt"
 viewBox="0.00 0.00 517.00 747.00" xmlns="http://www.w3.org/2000/svg" xmlns:xlink="http://www.w3.org/1999/xlink">
<g id="graph0" class="graph" transform="scale(1 1) rotate(0) translate(4 743)">
<title>ResearchDesign</title>
<polygon fill="white" stroke="transparent" points="-4,4 -4,-743 513,-743 513,4 -4,4"/>
<!-- D1 -->
<g id="node1" class="node">
<title>D1</title>
<path fill="#eef7ff" stroke="black" d="M254,-739C254,-739 12,-739 12,-739 6,-739 0,-733 0,-727 0,-727 0,-683 0,-683 0,-677 6,-671 12,-671 12,-671 254,-671 254,-671 260,-671 266,-677 266,-683 266,-683 266,-727 266,-727 266,-733 260,-739 254,-739"/>
<text text-anchor="middle" x="133" y="-723.8" font-family="Times,serif" font-size="14.00">Dataset&#45;1:</text>
<text text-anchor="middle" x="133" y="-708.8" font-family="Times,serif" font-size="14.00">Weather &amp; Context</text>
<text text-anchor="middle" x="133" y="-693.8" font-family="Times,serif" font-size="14.00">(POWER → t_min/t_max, RH, wind,</text>
<text text-anchor="middle" x="133" y="-678.8" font-family="Times,serif" font-size="14.00">solar, rain + t_mean, ΔT, VPD*)</text>
</g>
<!-- Join -->
<g id="node3" class="node">
<title>Join</title>
<path fill="#e8f5e9" stroke="black" d="M388.5,-639C388.5,-639 143.5,-639 143.5,-639 137.5,-639 131.5,-633 131.5,-627 131.5,-627 131.5,-615 131.5,-615 131.5,-609 137.5,-603 143.5,-603 143.5,-603 388.5,-603 388.5,-603 394.5,-603 400.5,-609 400.5,-615 400.5,-615 400.5,-627 400.5,-627 400.5,-633 394.5,-639 388.5,-639"/>
<text text-anchor="middle" x="266" y="-617.3" font-family="Times,serif" font-size="14.00">Join by date/region → plot&#45;day rows</text>
</g>
<!-- D1&#45;&gt;Join -->
<g id="edge1" class="edge">
<title>D1&#45;&gt;Join</title>
<path fill="none" stroke="black" d="M186.71,-670.88C201.12,-662 216.37,-652.6 229.59,-644.45"/>
<polygon fill="black" stroke="black" points="231.72,-647.25 238.4,-639.02 228.05,-641.29 231.72,-647.25"/>
</g>
<!-- D2 -->
<g id="node2" class="node">
<title>D2</title>
<path fill="#eef7ff" stroke="black" d="M497,-739C497,-739 303,-739 303,-739 297,-739 291,-733 291,-727 291,-727 291,-683 291,-683 291,-677 297,-671 303,-671 303,-671 497,-671 497,-671 503,-671 509,-677 509,-683 509,-683 509,-727 509,-727 509,-733 503,-739 497,-739"/>
<text text-anchor="middle" x="400" y="-723.8" font-family="Times,serif" font-size="14.00">Dataset&#45;2:</text>
<text text-anchor="middle" x="400" y="-708.8" font-family="Times,serif" font-size="14.00">Plot&#45;Day Recommendation</text>
<text text-anchor="middle" x="400" y="-693.8" font-family="Times,serif" font-size="14.00">(crop×region, soil moisture,</text>
<text text-anchor="middle" x="400" y="-678.8" font-family="Times,serif" font-size="14.00">rolling rain/evap, labels)</text>
</g>
<!-- D2&#45;&gt;Join -->
<g id="edge2" class="edge">
<title>D2&#45;&gt;Join</title>
<path fill="none" stroke="black" d="M345.88,-670.88C331.37,-662 316.01,-652.6 302.68,-644.45"/>
<polygon fill="black" stroke="black" points="304.17,-641.25 293.81,-639.02 300.51,-647.22 304.17,-641.25"/>
</g>
<!-- Prep -->
<g id="node4" class="node">
<title>Prep</title>
<path fill="#e8f5e9" stroke="black" d="M392,-571C392,-571 140,-571 140,-571 134,-571 128,-565 128,-559 128,-559 128,-545 128,-545 128,-539 134,-533 140,-533 140,-533 392,-533 392,-533 398,-533 404,-539 404,-545 404,-545 404,-559 404,-559 404,-565 398,-571 392,-571"/>
<text text-anchor="middle" x="266" y="-555.8" font-family="Times,serif" font-size="14.00">Pre&#45;processing</text>
<text text-anchor="middle" x="266" y="-540.8" font-family="Times,serif" font-size="14.00">validate • clean • impute • engineer</text>
</g>
<!-- Join&#45;&gt;Prep -->
<g id="edge3" class="edge">
<title>Join&#45;&gt;Prep</title>
<path fill="none" stroke="black" d="M266,-602.75C266,-596.29 266,-588.76 266,-581.55"/>
<polygon fill="black" stroke="black" points="269.5,-581.37 266,-571.37 262.5,-581.37 269.5,-581.37"/>
</g>
<!-- Split -->
<g id="node5" class="node">
<title>Split</title>
<path fill="#fff8e1" stroke="black" d="M385.5,-501C385.5,-501 146.5,-501 146.5,-501 140.5,-501 134.5,-495 134.5,-489 134.5,-489 134.5,-477 134.5,-477 134.5,-471 140.5,-465 146.5,-465 146.5,-465 385.5,-465 385.5,-465 391.5,-465 397.5,-471 397.5,-477 397.5,-477 397.5,-489 397.5,-489 397.5,-495 391.5,-501 385.5,-501"/>
<text text-anchor="middle" x="266" y="-479.3" font-family="Times,serif" font-size="14.00">Split 75/25 (stratified by &#39;irrigate&#39;)</text>
</g>
<!-- Prep&#45;&gt;Split -->
<g id="edge4" class="edge">
<title>Prep&#45;&gt;Split</title>
<path fill="none" stroke="black" d="M266,-532.69C266,-526.13 266,-518.59 266,-511.42"/>
<polygon fill="black" stroke="black" points="269.5,-511.36 266,-501.36 262.5,-511.36 269.5,-511.36"/>
</g>
<!-- CV -->
<g id="node6" class="node">
<title>CV</title>
<path fill="#fff3e0" stroke="black" d="M424.5,-433C424.5,-433 107.5,-433 107.5,-433 101.5,-433 95.5,-427 95.5,-421 95.5,-421 95.5,-407 95.5,-407 95.5,-401 101.5,-395 107.5,-395 107.5,-395 424.5,-395 424.5,-395 430.5,-395 436.5,-401 436.5,-407 436.5,-407 436.5,-421 436.5,-421 436.5,-427 430.5,-433 424.5,-433"/>
<text text-anchor="middle" x="266" y="-417.8" font-family="Times,serif" font-size="14.00">5&#45;fold CV + Hyper&#45;parameter Search</text>
<text text-anchor="middle" x="266" y="-402.8" font-family="Times,serif" font-size="14.00">Classifier: PR&#45;AUC/AUROC • Regressor: MAE</text>
</g>
<!-- Split&#45;&gt;CV -->
<g id="edge5" class="edge">
<title>Split&#45;&gt;CV</title>
<path fill="none" stroke="black" d="M266,-464.75C266,-458.29 266,-450.76 266,-443.55"/>
<polygon fill="black" stroke="black" points="269.5,-443.37 266,-433.37 262.5,-443.37 269.5,-443.37"/>
</g>
<!-- Best -->
<g id="node7" class="node">
<title>Best</title>
<path fill="#fff3e0" stroke="black" d="M325.5,-363C325.5,-363 206.5,-363 206.5,-363 200.5,-363 194.5,-357 194.5,-351 194.5,-351 194.5,-337 194.5,-337 194.5,-331 200.5,-325 206.5,-325 206.5,-325 325.5,-325 325.5,-325 331.5,-325 337.5,-331 337.5,-337 337.5,-337 337.5,-351 337.5,-351 337.5,-357 331.5,-363 325.5,-363"/>
<text text-anchor="middle" x="266" y="-347.8" font-family="Times,serif" font-size="14.00">Select best config</text>
<text text-anchor="middle" x="266" y="-332.8" font-family="Times,serif" font-size="14.00">re&#45;fit on full train</text>
</g>
<!-- CV&#45;&gt;Best -->
<g id="edge6" class="edge">
<title>CV&#45;&gt;Best</title>
<path fill="none" stroke="black" d="M266,-394.78C266,-388.22 266,-380.66 266,-373.44"/>
<polygon fill="black" stroke="black" points="269.5,-373.27 266,-363.27 262.5,-373.27 269.5,-373.27"/>
</g>
<!-- Cal -->
<g id="node8" class="node">
<title>Cal</title>
<path fill="#fdebd0" stroke="black" d="M357,-293C357,-293 175,-293 175,-293 169,-293 163,-287 163,-281 163,-281 163,-267 163,-267 163,-261 169,-255 175,-255 175,-255 357,-255 357,-255 363,-255 369,-261 369,-267 369,-267 369,-281 369,-281 369,-287 363,-293 357,-293"/>
<text text-anchor="middle" x="266" y="-277.8" font-family="Times,serif" font-size="14.00">Calibration (Platt/Isotonic)</text>
<text text-anchor="middle" x="266" y="-262.8" font-family="Times,serif" font-size="14.00">check reliability/Brier</text>
</g>
<!-- Best&#45;&gt;Cal -->
<g id="edge7" class="edge">
<title>Best&#45;&gt;Cal</title>
<path fill="none" stroke="black" d="M266,-324.78C266,-318.22 266,-310.66 266,-303.44"/>
<polygon fill="black" stroke="black" points="269.5,-303.27 266,-293.27 262.5,-303.27 269.5,-303.27"/>
</g>
<!-- Thr -->
<g id="node9" class="node">
<title>Thr</title>
<path fill="#fdebd0" stroke="black" d="M381,-223C381,-223 151,-223 151,-223 145,-223 139,-217 139,-211 139,-211 139,-197 139,-197 139,-191 145,-185 151,-185 151,-185 381,-185 381,-185 387,-185 393,-191 393,-197 393,-197 393,-211 393,-211 393,-217 387,-223 381,-223"/>
<text text-anchor="middle" x="266" y="-207.8" font-family="Times,serif" font-size="14.00">Threshold tuning τ_r (per region)</text>
<text text-anchor="middle" x="266" y="-192.8" font-family="Times,serif" font-size="14.00">Precision–Recall–F1 sweep</text>
</g>
<!-- Cal&#45;&gt;Thr -->
<g id="edge8" class="edge">
<title>Cal&#45;&gt;Thr</title>
<path fill="none" stroke="black" d="M266,-254.78C266,-248.22 266,-240.66 266,-233.44"/>
<polygon fill="black" stroke="black" points="269.5,-233.27 266,-223.27 262.5,-233.27 269.5,-233.27"/>
</g>
<!-- Test -->
<g id="node10" class="node">
<title>Test</title>
<path fill="#fce4ec" stroke="black" d="M390.5,-153C390.5,-153 141.5,-153 141.5,-153 135.5,-153 129.5,-147 129.5,-141 129.5,-141 129.5,-127 129.5,-127 129.5,-121 135.5,-115 141.5,-115 141.5,-115 390.5,-115 390.5,-115 396.5,-115 402.5,-121 402.5,-127 402.5,-127 402.5,-141 402.5,-141 402.5,-147 396.5,-153 390.5,-153"/>
<text text-anchor="middle" x="266" y="-137.8" font-family="Times,serif" font-size="14.00">Final Test Evaluation</text>
<text text-anchor="middle" x="266" y="-122.8" font-family="Times,serif" font-size="14.00">AUROC • PR&#45;AUC • F1 • MAE • CIs</text>
</g>
<!-- Thr&#45;&gt;Test -->
<g id="edge9" class="edge">
<title>Thr&#45;&gt;Test</title>
<path fill="none" stroke="black" d="M266,-184.78C266,-178.22 266,-170.66 266,-163.44"/>
<polygon fill="black" stroke="black" points="269.5,-163.27 266,-153.27 262.5,-163.27 269.5,-163.27"/>
</g>
<!-- Art -->
<g id="node11" class="node">
<title>Art</title>
<path fill="#e1f5fe" stroke="black" d="M340,-83C340,-83 192,-83 192,-83 186,-83 180,-77 180,-71 180,-71 180,-12 180,-12 180,-6 186,0 192,0 192,0 340,0 340,0 346,0 352,-6 352,-12 352,-12 352,-71 352,-71 352,-77 346,-83 340,-83"/>
<text text-anchor="middle" x="266" y="-67.8" font-family="Times,serif" font-size="14.00">Artifacts</text>
<text text-anchor="middle" x="266" y="-52.8" font-family="Times,serif" font-size="14.00">• joblib models</text>
<text text-anchor="middle" x="266" y="-37.8" font-family="Times,serif" font-size="14.00">• exact pipeline steps</text>
<text text-anchor="middle" x="266" y="-22.8" font-family="Times,serif" font-size="14.00">• PNG figures</text>
<text text-anchor="middle" x="266" y="-7.8" font-family="Times,serif" font-size="14.00">• thresholds τ_r</text>
</g>
<!-- Test&#45;&gt;Art -->
<g id="edge10" class="edge">
<title>Test&#45;&gt;Art</title>
<path fill="none" stroke="black" d="M266,-114.69C266,-108.37 266,-100.94 266,-93.31"/>
<polygon fill="black" stroke="black" points="269.5,-93.22 266,-83.22 262.5,-93.22 269.5,-93.22"/>
</g>
</g>
</svg>
