<?xml version="1.0" encoding="UTF-8" standalone="no"?>
<!DOCTYPE svg PUBLIC "-//W3C//DTD SVG 1.1//EN"
 "http://www.w3.org/Graphics/SVG/1.1/DTD/svg11.dtd">
<!-- Generated by graphviz version 2.42.4 (0)
 -->
<!-- Title: CVSchema Pages: 1 -->
<svg width="276pt" height="222pt"
 viewBox="0.00 0.00 276.00 222.00" xmlns="http://www.w3.org/2000/svg" xmlns:xlink="http://www.w3.org/1999/xlink">
<g id="graph0" class="graph" transform="scale(1 1) rotate(0) translate(4 218)">
<title>CVSchema</title>
<polygon fill="white" stroke="transparent" points="-4,4 -4,-218 272,-218 272,4 -4,4"/>
<!-- Split -->
<g id="node1" class="node">
<title>Split</title>
<path fill="#eef7ff" stroke="black" d="M222,-214C222,-214 46,-214 46,-214 40,-214 34,-208 34,-202 34,-202 34,-190 34,-190 34,-184 40,-178 46,-178 46,-178 222,-178 222,-178 228,-178 234,-184 234,-190 234,-190 234,-202 234,-202 234,-208 228,-214 222,-214"/>
<text text-anchor="middle" x="134" y="-192.3" font-family="Times,serif" font-size="14.00">Train (75%) &#160;| &#160;Test (25%)</text>
</g>
<!-- CV -->
<g id="node2" class="node">
<title>CV</title>
<path fill="#fff3e0" stroke="black" d="M256,-156C256,-156 12,-156 12,-156 6,-156 0,-150 0,-144 0,-144 0,-130 0,-130 0,-124 6,-118 12,-118 12,-118 256,-118 256,-118 262,-118 268,-124 268,-130 268,-130 268,-144 268,-144 268,-150 262,-156 256,-156"/>
<text text-anchor="middle" x="134" y="-140.8" font-family="Times,serif" font-size="14.00">5&#45;fold CV on Train</text>
<text text-anchor="middle" x="134" y="-125.8" font-family="Times,serif" font-size="14.00">(HParam search by PR&#45;AUC / MAE)</text>
</g>
<!-- Split&#45;&gt;CV -->
<g id="edge1" class="edge">
<title>Split&#45;&gt;CV</title>
<path fill="none" stroke="black" d="M134,-177.9C134,-174.27 134,-170.36 134,-166.44"/>
<polygon fill="black" stroke="black" points="137.5,-166.28 134,-156.28 130.5,-166.28 137.5,-166.28"/>
</g>
<!-- Best -->
<g id="node3" class="node">
<title>Best</title>
<path fill="#fff3e0" stroke="black" d="M240.5,-96C240.5,-96 27.5,-96 27.5,-96 21.5,-96 15.5,-90 15.5,-84 15.5,-84 15.5,-72 15.5,-72 15.5,-66 21.5,-60 27.5,-60 27.5,-60 240.5,-60 240.5,-60 246.5,-60 252.5,-66 252.5,-72 252.5,-72 252.5,-84 252.5,-84 252.5,-90 246.5,-96 240.5,-96"/>
<text text-anchor="middle" x="134" y="-74.3" font-family="Times,serif" font-size="14.00">Best config → re&#45;fit on all Train</text>
</g>
<!-- CV&#45;&gt;Best -->
<g id="edge2" class="edge">
<title>CV&#45;&gt;Best</title>
<path fill="none" stroke="black" d="M134,-117.96C134,-114.29 134,-110.35 134,-106.43"/>
<polygon fill="black" stroke="black" points="137.5,-106.33 134,-96.33 130.5,-106.33 137.5,-106.33"/>
</g>
<!-- Eval -->
<g id="node4" class="node">
<title>Eval</title>
<path fill="#fce4ec" stroke="black" d="M248,-38C248,-38 20,-38 20,-38 14,-38 8,-32 8,-26 8,-26 8,-12 8,-12 8,-6 14,0 20,0 20,0 248,0 248,0 254,0 260,-6 260,-12 260,-12 260,-26 260,-26 260,-32 254,-38 248,-38"/>
<text text-anchor="middle" x="134" y="-22.8" font-family="Times,serif" font-size="14.00">Evaluate on held&#45;out Test</text>
<text text-anchor="middle" x="134" y="-7.8" font-family="Times,serif" font-size="14.00">AUROC, PR&#45;AUC, F1, MAE + CIs</text>
</g>
<!-- Best&#45;&gt;Eval -->
<g id="edge3" class="edge">
<title>Best&#45;&gt;Eval</title>
<path fill="none" stroke="black" d="M134,-59.9C134,-56.27 134,-52.36 134,-48.44"/>
<polygon fill="black" stroke="black" points="137.5,-48.28 134,-38.28 130.5,-48.28 137.5,-48.28"/>
</g>
</g>
</svg>
